<?xml version="1.0" encoding="UTF-8" standalone="no"?>
<!-- Created with Inkscape (http://www.inkscape.org/) -->

<svg
   xmlns:dc="http://purl.org/dc/elements/1.1/"
   xmlns:cc="http://creativecommons.org/ns#"
   xmlns:rdf="http://www.w3.org/1999/02/22-rdf-syntax-ns#"
   xmlns:svg="http://www.w3.org/2000/svg"
   xmlns="http://www.w3.org/2000/svg"
   xmlns:sodipodi="http://sodipodi.sourceforge.net/DTD/sodipodi-0.dtd"
   xmlns:inkscape="http://www.inkscape.org/namespaces/inkscape"
   version="1.1"
   id="svg4572"
   width="25"
   height="25"
   viewBox="0 0 250.00002 250"
   sodipodi:docname="Test-Editor_Logo_simple_250x250.svg"
   inkscape:version="0.92.3 (2405546, 2018-03-11)"
   inkscape:export-filename="Test-Editor_Logo_simple.svg_1540x1500.png"
   inkscape:export-xdpi="111.53916"
   inkscape:export-ydpi="111.53916">
  <metadata
     id="metadata4578">
    <rdf:RDF>
      <cc:Work
         rdf:about="">
        <dc:format>image/svg+xml</dc:format>
        <dc:type
           rdf:resource="http://purl.org/dc/dcmitype/StillImage" />
        <dc:title></dc:title>
      </cc:Work>
    </rdf:RDF>
  </metadata>
  <defs
     id="defs4576" />
  <sodipodi:namedview
     pagecolor="#ffffff"
     bordercolor="#666666"
     borderopacity="1"
     objecttolerance="10"
     gridtolerance="10"
     guidetolerance="10"
     inkscape:pageopacity="0"
     inkscape:pageshadow="2"
     inkscape:window-width="1920"
     inkscape:window-height="922"
     id="namedview4574"
     showgrid="false"
     inkscape:zoom="1.45"
     inkscape:cx="-143.338"
     inkscape:cy="85.375657"
     inkscape:window-x="0"
     inkscape:window-y="27"
     inkscape:window-maximized="1"
     inkscape:current-layer="svg4572"
     inkscape:measure-start="10.8479,996.201"
     inkscape:measure-end="1216.78,999.817"
     fit-margin-top="0"
     fit-margin-left="0"
     fit-margin-right="0"
     fit-margin-bottom="0"
     showguides="true"
     inkscape:guide-bbox="true">
    <sodipodi:guide
       position="5.0000002,150.00001"
       orientation="1,0"
       id="guide4016"
       inkscape:locked="false"
       inkscape:label="links"
       inkscape:color="rgb(0,0,255)" />
    <sodipodi:guide
       position="-273.58614,245.00001"
       orientation="0,1"
       id="guide4018"
       inkscape:locked="false"
       inkscape:label="oben"
       inkscape:color="rgb(255,0,29)" />
    <sodipodi:guide
       position="245.00001,830.00004"
       orientation="1,0"
       id="guide4020"
       inkscape:locked="false"
       inkscape:label=""
       inkscape:color="rgb(0,0,255)" />
    <sodipodi:guide
       position="-273.58614,5.0000002"
       orientation="0,1"
       id="guide4022"
       inkscape:locked="false"
       inkscape:label="unten"
       inkscape:color="rgb(255,0,66)" />
  </sodipodi:namedview>
  <g
     id="g4669"
     transform="matrix(0.35302342,0,0,0.36173166,-18.4398,-12.661687)"
     inkscape:export-xdpi="96"
     inkscape:export-ydpi="96">
    <g
       transform="translate(25.31187,-28.927789)"
       id="g4621">
      <path
         style="fill:#ff0000;fill-opacity:1;fill-rule:evenodd;stroke:none;stroke-width:1.00157475;stroke-linecap:butt;stroke-linejoin:miter;stroke-miterlimit:4;stroke-dasharray:none;stroke-opacity:1"
         d="m 41.229686,390.56338 77.742774,0.29219 c -0.0502,-22.08436 5.43866,-40.25091 8.20019,-49.96412 l -31.741656,-12.7844 c 6.392196,-15.59091 7.621716,-26.01914 19.176596,-46.77273 l 32.49056,12.86194 c 7.56817,-12.7809 9.48888,-21.54988 29.4041,-41.81406 -13.79277,-11.98478 -17.35163,-15.54364 -25.34944,-22.18547 29.79483,-33.71129 24.51857,-24.76821 36.77785,-37.15231 7.66952,7.12529 15.9479,16.17822 24.36791,23.16702 23.59079,-17.38803 34.51415,-22.78737 42.11097,-26.24014 L 240.3467,158.90099 c 20.47709,-10.58499 35.72947,-15.82696 48.80006,-20.14483 l 13.36408,31.85601 c 23.01374,-6.77508 29.99123,-8.0845 50.04637,-9.85306 l -0.005,-75.181188 C 224.47752,91.838461 54.316237,191.93883 41.229686,390.56338 Z"
         id="path4584"
         inkscape:connector-curvature="0"
         sodipodi:nodetypes="ccccccccccccccccc" />
      <path
         style="fill:#008000;fill-rule:evenodd;stroke:none;stroke-width:1px;stroke-linecap:butt;stroke-linejoin:miter;stroke-opacity:1"
         d="m 718.86865,436.24298 -77.74277,-0.29219 c 0.0502,22.08436 -5.43866,40.25091 -8.20019,49.96412 l 31.74165,12.7844 c -6.39219,15.59091 -7.62171,26.01914 -19.17659,46.77273 L 613.00019,532.6101 c -7.56817,12.7809 -9.48888,21.54988 -29.4041,41.81406 13.79277,11.98478 17.35163,15.54364 25.34944,22.18547 -29.79483,33.71129 -24.51857,24.76821 -36.77785,37.15231 -7.66952,-7.12529 -15.9479,-16.17822 -24.36791,-23.16702 -23.59079,17.38803 -34.51415,22.78737 -42.11097,26.24014 l 14.06284,31.0703 c -20.47709,10.58499 -35.72947,15.82696 -48.80006,20.14483 L 457.5875,656.19418 c -23.01374,6.77508 -29.99123,8.0845 -50.04637,9.85306 l 0.005,75.18119 C 535.62082,734.96789 705.7821,634.86753 718.86865,436.24298 Z"
         id="path4584-7"
         inkscape:connector-curvature="0"
         sodipodi:nodetypes="ccccccccccccccccc" />
      <path
         style="fill:#febe09;fill-opacity:1;fill-rule:evenodd;stroke:none;stroke-width:1px;stroke-linecap:butt;stroke-linejoin:miter;stroke-opacity:1"
         d="m 358.38337,740.60498 -2.88709,-77.68971 c -22.06384,0.95323 -40.43964,-3.78818 -50.25765,-6.15021 l -11.47574,32.23789 c -15.83926,-5.74931 -26.30904,-6.55137 -47.51777,-17.24794 l 11.52258,-32.98933 c -13.07968,-7.03921 -21.91987,-8.59973 -42.98147,-27.66966 -11.41074,14.27132 -14.8211,17.97273 -21.13033,26.23545 -34.90145,-28.3914 -25.7501,-23.48525 -38.62514,-35.22787 6.80571,-7.95447 15.51255,-16.59612 22.15119,-25.29487 C 158.8438,553.9487 153.0023,543.25527 149.24177,535.80599 l -30.46926,15.3216 C 107.35903,531.10046 101.49774,516.0752 96.649007,503.1921 l 31.282883,-14.65555 c -7.71049,-22.71744 -9.30413,-29.63555 -11.8913,-49.60161 l -75.118105,3.07929 C 52.414991,569.7258 159.38982,735.65147 358.38337,740.60498 Z"
         id="path4584-6"
         inkscape:connector-curvature="0"
         sodipodi:nodetypes="ccccccccccccccccc" />
    </g>
    <path
       sodipodi:nodetypes="csccsc"
       inkscape:connector-curvature="0"
       id="path4623"
       d="m 238.45853,544.42575 c -1.13436,-1.82487 -1.52175,-5.52356 -0.77723,-7.71946 25.17432,-74.24993 23.86222,-68.60022 35.85443,-96.15378 1.43824,0.90556 51.02456,18.83572 69.43526,67.2779 -42.59992,15.51362 -68.40095,28.3605 -95.41597,36.45386 -3.38512,1.01414 -8.22297,1.9572 -9.09649,0.14148 z"
       style="fill:#878787;fill-opacity:1;fill-rule:evenodd;stroke:#b3b3b3;stroke-width:0;stroke-linecap:butt;stroke-linejoin:round;stroke-miterlimit:4;stroke-dasharray:none;stroke-opacity:1" />
    <path
       sodipodi:nodetypes="ccccc"
       inkscape:connector-curvature="0"
       id="path4625"
       d="m 285.27144,428.32913 c 43.45523,21.15024 56.06642,43.57891 71.31523,69.20369 L 673.47516,186.51087 C 658.2817,163.3404 622.59602,131.47963 602.43412,121.42334 Z"
       style="fill:#16a582;fill-opacity:1;fill-rule:evenodd;stroke:#16a582;stroke-width:0;stroke-linecap:round;stroke-linejoin:round;stroke-miterlimit:4;stroke-dasharray:none;stroke-opacity:1" />
    <path
       sodipodi:nodetypes="ccccc"
       inkscape:connector-curvature="0"
       id="path4627"
       d="m 616.95664,108.63755 12.7844,-13.423616 c 29.15775,18.324306 50.53088,37.436276 70.31419,64.561216 l -14.38245,15.66089 c -2.29581,-9.80163 -47.04637,-52.7964 -68.71614,-66.79849 z"
       style="fill:#878787;fill-opacity:1;fill-rule:evenodd;stroke:#b3b3b3;stroke-width:0;stroke-linecap:round;stroke-linejoin:round;stroke-miterlimit:4;stroke-dasharray:none;stroke-opacity:1" />
    <path
       sodipodi:nodetypes="ccccccc"
       inkscape:connector-curvature="0"
       id="path4629"
       d="m 643.32447,81.950119 c 34.30379,25.164591 45.59768,36.808411 70.7936,66.478871 l 32.44041,-34.03846 c 4.60306,-7.93118 3.42411,-11.41809 -0.31961,-17.738352 L 696.85913,49.989122 c -2.45976,-2.857675 -12.19183,-5.63732 -18.37757,-0.95883 z"
       style="fill:#eb431c;fill-opacity:1;fill-rule:evenodd;stroke:#eb431c;stroke-width:0;stroke-linecap:butt;stroke-linejoin:round;stroke-miterlimit:4;stroke-dasharray:none;stroke-opacity:1" />
  </g>
</svg>