<?xml version="1.0" encoding="UTF-8" standalone="no"?>
<svg
   xmlns:dc="http://purl.org/dc/elements/1.1/"
   xmlns:cc="http://creativecommons.org/ns#"
   xmlns:rdf="http://www.w3.org/1999/02/22-rdf-syntax-ns#"
   xmlns:svg="http://www.w3.org/2000/svg"
   xmlns="http://www.w3.org/2000/svg"
   xmlns:sodipodi="http://sodipodi.sourceforge.net/DTD/sodipodi-0.dtd"
   xmlns:inkscape="http://www.inkscape.org/namespaces/inkscape"
   width="30"
   height="30"
   viewBox="0 0 16 16"
   version="1.1"
   id="svg4"
   sodipodi:docname="continuosly.svg"
   inkscape:version="0.92.3 (2405546, 2018-03-11)">
  <metadata
     id="metadata10">
    <rdf:RDF>
      <cc:Work
         rdf:about="">
        <dc:format>image/svg+xml</dc:format>
        <dc:type
           rdf:resource="http://purl.org/dc/dcmitype/StillImage" />
        <dc:title></dc:title>
      </cc:Work>
    </rdf:RDF>
  </metadata>
  <defs
     id="defs8" />
  <sodipodi:namedview
     pagecolor="#ffffff"
     bordercolor="#666666"
     borderopacity="1"
     objecttolerance="10"
     gridtolerance="10"
     guidetolerance="10"
     inkscape:pageopacity="0"
     inkscape:pageshadow="2"
     inkscape:window-width="1920"
     inkscape:window-height="1016"
     id="namedview6"
     showgrid="false"
     inkscape:zoom="14.75"
     inkscape:cx="8.4067797"
     inkscape:cy="8"
     inkscape:window-x="0"
     inkscape:window-y="27"
     inkscape:window-maximized="1"
     inkscape:current-layer="svg4" />
  <g
     id="g834"
     transform="translate(0.47457627,-4)">
    <path
       style="fill:#303c42;fill-opacity:1" 
       id="path2"
       d="m 0,11 a 1,1 0 0 0 2,0 5,5 0 0 1 9.584,-2 H 8.996 a 1,1 0 0 0 0,2 H 14 a 1,1 0 0 0 1,-1 V 5 A 1,1 0 1 0 13,5 V 7.392 A 7,7 0 0 0 0,11 Z"
       inkscape:connector-curvature="0" />
    <path
       style="fill:#303c42;fill-opacity:1"
       id="path2-6"
       d="m 15,12.997551 a 1,1 0 0 0 -2,0 5,5 0 0 1 -9.5840004,2 h 2.588 a 1.0000002,1.0000002 0 0 0 0,-2 H 0.99999957 a 1,1 0 0 0 -0.99999999855323,1 v 5 a 1,1 0 1 0 2.00000002855323,0 v -2.392 A 7,7 0 0 0 15,12.997551 Z"
       inkscape:connector-curvature="0" />
  </g>
</svg>
